<svg xmlns="http://www.w3.org/2000/svg" viewBox="0 0 512 512">
  <rect width="512" height="512" rx="100" fill="#dc2626" />
  <svg x="64" y="64" width="384" height="384" fill="#ffffff" viewBox="0 0 640 512">
    <path d="M432 256c0 17.7-14.3 32-32 32l-160 0c-17.7 0-32-14.3-32-32V160c0-17.7 14.3-32 32-32l160 0c17.7 0 32 14.3 32 32v96zM128 416c0 35.3 28.7 64 64 64s64-28.7 64-64l128 0c0 35.3 28.7 64 64 64s64-28.7 64-64l64 0c17.7 0 32-14.3 32-32V256c0-53-43-96-96-96l-64 0 0-16c0-44.2-35.8-80-80-80L64 64C28.7 64 0 92.7 0 128V384c0 17.7 14.3 32 32 32l96 0zm-32-96L32 320V128c0-17.7 14.3-32 32-32l208 0c26.5 0 48 21.5 48 48l0 16 64 0c35.3 0 64 28.7 64 64v128l-32 0c0-35.3-28.7-64-64-64s-64 28.7-64 64l-128 0c0-35.3-28.7-64-64-64s-64 28.7-64 64l-32 0zm96 32a32 32 0 1 0 0-64 32 32 0 1 0 0 64zm256 0a32 32 0 1 0 0-64 32 32 0 1 0 0 64z"/>
  </svg>
</svg>
